# xmcd
#
# Track frame offsets: 
#        150
#        28062
#        56750
#        83562
#
# Disc length: 1295 seconds
#
# Revision: 3
# Processed by: cddbd v1.5.2PL0 Copyright (c) Steve Scherf et al.
# Submitted via: ExactAudioCopy v1.3
#
DISCID=29050d04
DTITLE=Double You - Part-Time Lover (Remix)
DYEAR=1993
DGENRE=Eurodance
TTITLE0=Part-Time Lover (Remix E.U.R.O. Mix)
TTITLE1=Part-Time Lover (Remix Dub - All Mix)
TTITLE2=Got To Love (Club Mix)
TTITLE3=Part-Time Lover (Remix Radio Edit)
EXTD=
EXTT0=
EXTT1=
EXTT2=
EXTT3=
PLAYORDER=
